<?xml version="1.0" encoding="UTF-8"?>
<svg width="500" height="400" viewBox="0 0 500 400" fill="none" xmlns="http://www.w3.org/2000/svg">
  <!-- Monitor -->
  <rect x="150" y="50" width="200" height="150" rx="5" fill="#455A64"/>
  <rect x="160" y="60" width="180" height="120" fill="#F5F7FA"/>
  <rect x="180" y="200" width="140" height="20" fill="#37474F"/>
  <rect x="220" y="220" width="60" height="10" fill="#263238"/>
  
  <!-- Flowchart on screen -->
  <rect x="180" y="80" width="40" height="20" rx="2" fill="#4CAF4F"/>
  <rect x="260" y="80" width="40" height="20" rx="2" fill="#4CAF4F"/>
  <line x1="220" y1="90" x2="260" y2="90" stroke="#4CAF4F" stroke-width="2"/>
  <rect x="220" y="120" width="40" height="20" rx="2" fill="#4CAF4F"/>
  <line x1="240" y1="100" x2="240" y2="120" stroke="#4CAF4F" stroke-width="2"/>
  <line x1="200" y1="100" x2="200" y2="130" stroke="#4CAF4F" stroke-width="2"/>
  <line x1="280" y1="100" x2="280" y2="130" stroke="#4CAF4F" stroke-width="2"/>
  <rect x="180" y="130" width="40" height="20" rx="2" fill="#4CAF4F"/>
  <rect x="260" y="130" width="40" height="20" rx="2" fill="#4CAF4F"/>
  
  <!-- Code Window -->
  <rect x="320" y="120" width="120" height="100" rx="5" fill="#455A64"/>
  <rect x="330" y="130" width="100" height="80" fill="#263238"/>
  <rect x="330" y="130" width="100" height="15" fill="#4CAF4F"/>
  <circle cx="340" cy="137.5" r="3" fill="#FF5252"/>
  <circle cx="350" cy="137.5" r="3" fill="#FFEB3B"/>
  <circle cx="360" cy="137.5" r="3" fill="#4CAF50"/>
  
  <!-- Code lines -->
  <line x1="335" y1="155" x2="425" y2="155" stroke="#C8E6C9" stroke-width="1.5"/>
  <line x1="335" y1="165" x2="405" y2="165" stroke="#FFFFFF" stroke-width="1.5" stroke-opacity="0.6"/>
  <line x1="335" y1="175" x2="415" y2="175" stroke="#C8E6C9" stroke-width="1.5"/>
  <line x1="335" y1="185" x2="395" y2="185" stroke="#FFFFFF" stroke-width="1.5" stroke-opacity="0.6"/>
  <line x1="335" y1="195" x2="410" y2="195" stroke="#C8E6C9" stroke-width="1.5"/>
  
  <!-- Person silhouette -->
  <ellipse cx="100" cy="280" rx="60" ry="10" fill="#E0E0E0" fill-opacity="0.3"/>
  <path d="M100 270C116.569 270 130 256.569 130 240C130 223.431 116.569 210 100 210C83.4315 210 70 223.431 70 240C70 256.569 83.4315 270 100 270Z" fill="#FFBE9D"/>
  <path d="M130 280V260C130 251.716 123.284 245 115 245H85C76.7157 245 70 251.716 70 260V280" fill="#4CAF4F"/>
  
  <!-- Shadow -->
  <ellipse cx="250" cy="350" rx="150" ry="20" fill="#E0E0E0" fill-opacity="0.5"/>
</svg>
