<svg class="achievement-icon-svg" viewBox="0 0 24 24" fill="currentColor" xmlns="http://www.w3.org/2000/svg"><path d="M12 12.75C8.83 12.75 6.25 10.17 6.25 7C6.25 3.83 8.83 1.25 12 1.25C15.17 1.25 17.75 3.83 17.75 7C17.75 10.17 15.17 12.75 12 12.75ZM12 2.75C9.66 2.75 7.75 4.66 7.75 7C7.75 9.34 9.66 11.25 12 11.25C14.34 11.25 16.25 9.34 16.25 7C16.25 4.66 14.34 2.75 12 2.75Z"></path><path d="M3.41003 22.75C3.00003 22.75 2.66003 22.41 2.66003 22C2.66003 17.73 6.73003 14.25 12 14.25C17.27 14.25 21.34 17.73 21.34 22C21.34 22.41 21 22.75 20.59 22.75C20.18 22.75 19.84 22.41 19.84 22C19.84 18.55 16.36 15.75 12 15.75C7.64003 15.75 4.16003 18.55 4.16003 22C4.16003 22.41 3.82003 22.75 3.41003 22.75Z"></path></svg>